<?xml version="1.0" encoding="UTF-8" standalone="no"?>
<!-- Created with Inkscape (http://www.inkscape.org/) -->

<svg
   width="307.18912"
   height="77.292648"
   viewBox="0 0 307.18912 77.292648"
   version="1.1"
   id="svg5"
   inkscape:version="1.1.2 (0a00cf5339, 2022-02-04)"
   sodipodi:docname="logo-light.svg"
   xmlns:inkscape="http://www.inkscape.org/namespaces/inkscape"
   xmlns:sodipodi="http://sodipodi.sourceforge.net/DTD/sodipodi-0.dtd"
   xmlns="http://www.w3.org/2000/svg"
   xmlns:svg="http://www.w3.org/2000/svg">
  <sodipodi:namedview
     id="namedview7"
     pagecolor="#ffffff"
     bordercolor="#666666"
     borderopacity="1.0"
     inkscape:pageshadow="2"
     inkscape:pageopacity="0.0"
     inkscape:pagecheckerboard="0"
     inkscape:document-units="px"
     showgrid="false"
     fit-margin-top="0"
     fit-margin-left="0"
     fit-margin-right="0"
     fit-margin-bottom="0"
     inkscape:zoom="1.5463415"
     inkscape:cx="100.23659"
     inkscape:cy="-27.160883"
     inkscape:window-width="2408"
     inkscape:window-height="1551"
     inkscape:window-x="1428"
     inkscape:window-y="190"
     inkscape:window-maximized="0"
     inkscape:current-layer="layer1" />
  <defs
     id="defs2">
    <rect
       x="273.0683"
       y="124.34833"
       width="234.39256"
       height="105.1055"
       id="rect30752" />
    <rect
       x="271.34247"
       y="134.3963"
       width="260.43878"
       height="88.285858"
       id="rect17348" />
  </defs>
  <g
     inkscape:label="Layer 1"
     inkscape:groupmode="layer"
     id="layer1"
     transform="translate(-250.6564,-210.10258)">
    <text
       xml:space="preserve"
       id="text17346"
       style="font-style:normal;font-weight:normal;font-size:40px;line-height:1.25;font-family:sans-serif;white-space:pre;shape-inside:url(#rect17348);fill:#000000;fill-opacity:1;stroke:none" />
    <g
       aria-label="CHITCHAT"
       transform="matrix(1.4640308,0,0,1.4640308,-152.04071,19.704228)"
       id="text30750"
       style="font-size:40px;line-height:1.25;white-space:pre;shape-inside:url(#rect30752)">
      <path
         d="m 299.86523,158.13672 q -2.07031,1.07422 -4.3164,1.62109 -2.2461,0.54688 -4.6875,0.54688 -7.28516,0 -11.54297,-4.0625 -4.25781,-4.08203 -4.25781,-11.05469 0,-6.99219 4.25781,-11.05469 4.25781,-4.08203 11.54297,-4.08203 2.4414,0 4.6875,0.54688 2.24609,0.54687 4.3164,1.62109 v 6.03516 q -2.08984,-1.42579 -4.12109,-2.08985 Q 293.71289,135.5 291.4668,135.5 q -4.02344,0 -6.32813,2.57812 -2.30469,2.57813 -2.30469,7.10938 0,4.51172 2.30469,7.08984 2.30469,2.57813 6.32813,2.57813 2.24609,0 4.27734,-0.66406 2.03125,-0.66407 4.12109,-2.08985 z"
         style="font-weight:bold;-inkscape-font-specification:'sans-serif, Bold'"
         id="path45478" />
      <path
         d="m 306.0957,130.57812 h 7.51953 v 11.11329 h 11.09375 v -11.11329 h 7.51954 v 29.16016 h -7.51954 V 147.375 h -11.09375 v 12.36328 h -7.51953 z"
         style="font-weight:bold;-inkscape-font-specification:'sans-serif, Bold'"
         id="path45480" />
      <path
         d="m 339.57227,130.57812 h 7.51953 v 29.16016 h -7.51953 z"
         style="font-weight:bold;-inkscape-font-specification:'sans-serif, Bold'"
         id="path45482" />
      <path
         d="m 350.97852,130.57812 h 26.875 v 5.6836 h -9.66797 v 23.47656 h -7.51953 v -23.47656 h -9.6875 z"
         style="font-weight:bold;-inkscape-font-specification:'sans-serif, Bold'"
         id="path45484" />
      <path
         d="m 403.83008,132.82422 v 4.16015 q -1.99219,-1.85546 -4.25781,-2.77343 -2.2461,-0.91797 -4.78516,-0.91797 -5,0 -7.65625,3.0664 -2.65625,3.04688 -2.65625,8.82813 0,5.76172 2.65625,8.82812 2.65625,3.04688 7.65625,3.04688 2.53906,0 4.78516,-0.91797 2.26562,-0.91797 4.25781,-2.77344 v 4.1211 q -2.07031,1.40625 -4.39453,2.10937 -2.30469,0.70313 -4.88282,0.70313 -6.62109,0 -10.42968,-4.04297 -3.8086,-4.0625 -3.8086,-11.07422 0,-7.03125 3.8086,-11.07422 3.80859,-4.0625 10.42968,-4.0625 2.61719,0 4.92188,0.70313 2.32422,0.68359 4.35547,2.07031 z"
         id="path45486" />
      <path
         d="m 409.92383,130.57812 h 3.94531 v 11.95313 h 14.33594 v -11.95313 h 3.94531 v 29.16016 h -3.94531 v -13.88672 h -14.33594 v 13.88672 h -3.94531 z"
         id="path45488" />
      <path
         d="m 449.74805,134.46484 -5.35157,14.51172 h 10.72266 z m -2.22657,-3.88672 h 4.47266 l 11.11328,29.16016 h -4.10156 l -2.65625,-7.48047 h -13.14453 l -2.65625,7.48047 h -4.16016 z"
         id="path45490" />
      <path
         d="m 460.2168,130.57812 h 24.66797 v 3.32032 H 474.5332 v 25.83984 h -3.96484 V 133.89844 H 460.2168 Z"
         id="path45492" />
    </g>
    <g
       aria-label="final"
       id="text7919"
       style="font-size:40px;line-height:1.25;font-family:'TeX Gyre Chorus';-inkscape-font-specification:'TeX Gyre Chorus, Normal'">
      <path
         d="m 505.97004,273.50645 0.16,-1.2 c -1.96,1.2 -3.92,2.2 -4.28,2.2 -0.44,0 -0.76,-0.48 -0.76,-1.12 0,-0.56 0.36,-2.28 1.28,-5.92 1.4,-5.76 1.48,-6.04 1.48,-6.44 0,-0.2 -0.16,-0.36 -0.44,-0.36 -0.56,0 -1.76,0.44 -3,1.12 -2.12,1.16 -2.88,1.48 -3.52,1.48 h -3.16 c 2.36,-9.76 3.2,-11.48 5.48,-11.48 1.48,0 2.6,0.56 4.68,2.24 l 2.8,-3.28 c -2.28,-0.64 -3.68,-0.88 -5.16,-0.88 -2.08,0 -3.96,1.04 -6.52,3.52 -2.16,2.12 -2.92,3.84 -4.28,9.92 l -3.2,0.04 c -0.4,0.24 -1.24,0.64 -2.44,1.28 l 5.32,0.04 c -1.16,5.56 -2.84,12.8 -3.24,14.08 -1.32,4.52 -2.4,5.76 -5,5.76 -0.6,0 -1.08,-0.04 -2.04,-0.2 -0.2,0.32 -0.36,0.48 -0.56,0.76 -0.2,0.32 -0.44,0.64 -0.68,0.96 -0.24,0.32 -0.44,0.56 -0.6,0.8 0.8,0.12 1.12,0.16 1.76,0.16 2.52,0 3.32,-0.36 5.52,-2.52 1.68,-1.6 2.32,-2.44 3.08,-4 1.36,-2.76 1.84,-4.28 4.16,-13.52 l 0.6,-2.28 h 2.72 c 0.76,0 1.48,-0.04 2.24,-0.32 0.84,-0.32 1.12,-0.4 1.36,-0.4 0.4,0 0.68,0.24 0.68,0.6 0,0.44 -0.76,3.72 -1.48,6.28 -0.96,3.52 -1.12,4.2 -1.12,5.08 0,1.04 0.4,1.68 1.04,1.68 0.68,0 1.4,-0.36 3.72,-1.88 0.64,-0.44 0.96,-0.68 3.4,-2.2 z"
         id="path835" />
      <path
         d="m 524.05006,271.98645 c -4,2.28 -4.16,2.36 -4.56,2.36 -0.4,0 -0.64,-0.44 -0.64,-1.08 0,-0.84 0.28,-2.16 1.04,-4.92 1.88,-6.72 1.88,-6.72 1.88,-7 0,-0.44 -0.28,-0.68 -0.8,-0.68 -0.6,0 -1.48,0.36 -2.92,1.28 l -5.48,3.4 c 0.36,-1.32 0.96,-3.84 0.96,-4.16 0,-0.28 -0.24,-0.52 -0.52,-0.52 -0.44,0 -3.32,1.48 -6.28,3.24 l -0.24,1.04 c 2.56,-1.16 2.72,-1.2 3.08,-1.2 0.28,0 0.48,0.24 0.48,0.56 0,0.84 -0.76,4.16 -1.76,7.8 l -0.92,3.24 -0.56,2.16 3,-1.16 2.36,-9.4 c 5,-3.16 5.12,-3.2 5.68,-3.2 0.28,0 0.44,0.2 0.44,0.52 0,0.6 -0.32,2.12 -1.48,6.68 -0.88,3.56 -1.04,4.24 -1.04,5 0,0.56 0.16,1.08 0.6,1.8 1.84,-0.84 4.6,-2.56 7.4,-4.64 z"
         id="path837" />
      <path
         d="m 541.29002,273.14645 v -1.16 c -0.76,0.48 -3.4,2.36 -4.04,2.36 -0.4,0 -0.48,-0.52 -0.48,-0.88 0,-1.48 1.8,-8.8 2.28,-10.76 0.16,-0.24 0.96,-1.24 1.16,-1.44 -1.36,-0.36 -3.12,-0.6 -4.72,-0.6 -2.68,0 -2.96,0.28 -4.8,1.56 -1.08,0.76 -2.08,1.2 -2.84,2.4 -2,3.12 -2.76,7.16 -2.76,9.68 0,1.2 0.32,3.36 1.72,3.36 1.48,0 5.08,-3 7.16,-4.44 l -0.28,1.8 c -0.24,1.36 -0.48,2.6 0.48,2.6 1,0 5.96,-3.64 7.12,-4.48 z m -7.08,-1.48 c -1.2,0.88 -3.84,3.04 -4.88,3.04 -1.04,0 -1.24,-1.08 -1.24,-2.04 0,-2.56 0.8,-5.48 1.84,-7.52 0.68,-1.4 1.32,-2.56 3.12,-2.56 1,0 2.24,0.28 3.24,0.48 z"
         id="path839" />
      <path
         d="m 550.73003,272.82645 v -0.88 c -0.56,0.32 -0.92,0.56 -1.08,0.64 -2.88,1.8 -3.2,1.96 -3.76,1.96 -0.72,0 -0.72,-0.96 -0.72,-1.76 0,-0.72 1.8,-8.48 3.28,-14.12 1.56,-5.88 1.92,-6.6 3.68,-6.6 0.52,0 0.92,0.04 1.96,0.28 l 1.72,-2.12 c -0.84,-0.2 -1.28,-0.24 -1.8,-0.24 -1.6,0 -2.88,0.64 -4.8,2.36 -1.76,1.6 -2.2,2.2 -2.72,3.64 -0.32,0.96 -1.2,4.2 -1.6,5.96 l -2.88,12.52 c -0.04,0.24 -0.08,0.48 -0.08,0.72 0,1.24 0.48,2.44 1.68,2.44 0.4,0 2.08,-1.16 7.12,-4.8 z"
         id="path841" />
    </g>
  </g>
</svg>
