<?xml version="1.0" encoding="UTF-8" standalone="no"?>
<!-- Created with Inkscape (http://www.inkscape.org/) -->

<svg
   width="307.18912"
   height="44.292652"
   viewBox="0 0 307.18912 44.292652"
   version="1.1"
   id="svg5"
   inkscape:version="1.1.2 (0a00cf5339, 2022-02-04)"
   sodipodi:docname="logo-dark.svg"
   xmlns:inkscape="http://www.inkscape.org/namespaces/inkscape"
   xmlns:sodipodi="http://sodipodi.sourceforge.net/DTD/sodipodi-0.dtd"
   xmlns="http://www.w3.org/2000/svg"
   xmlns:svg="http://www.w3.org/2000/svg">
  <sodipodi:namedview
     id="namedview7"
     pagecolor="#ffffff"
     bordercolor="#666666"
     borderopacity="1.0"
     inkscape:pageshadow="2"
     inkscape:pageopacity="0.0"
     inkscape:pagecheckerboard="0"
     inkscape:document-units="px"
     showgrid="false"
     fit-margin-top="0"
     fit-margin-left="0"
     fit-margin-right="0"
     fit-margin-bottom="0"
     inkscape:zoom="1.5463415"
     inkscape:cx="100.23659"
     inkscape:cy="-27.160883"
     inkscape:window-width="2408"
     inkscape:window-height="1551"
     inkscape:window-x="1428"
     inkscape:window-y="190"
     inkscape:window-maximized="0"
     inkscape:current-layer="layer1" />
  <defs
     id="defs2">
    <rect
       x="273.0683"
       y="124.34833"
       width="234.39256"
       height="105.1055"
       id="rect30752" />
    <rect
       x="271.34247"
       y="134.3963"
       width="260.43878"
       height="88.285858"
       id="rect17348" />
  </defs>
  <g
     inkscape:label="Layer 1"
     inkscape:groupmode="layer"
     id="layer1"
     transform="translate(-250.6564,-210.10258)">
    <text
       xml:space="preserve"
       id="text17346"
       style="font-style:normal;font-weight:normal;font-size:40px;line-height:1.25;font-family:sans-serif;white-space:pre;shape-inside:url(#rect17348);fill:#000000;fill-opacity:1;stroke:none" />
    <g
       aria-label="CHITCHAT"
       transform="matrix(1.4640308,0,0,1.4640308,-152.04071,19.704228)"
       id="text30750"
       style="font-size:40px;line-height:1.25;white-space:pre;shape-inside:url(#rect30752);fill:#e6e6e6">
      <path
         d="m 299.86523,158.13672 q -2.07031,1.07422 -4.3164,1.62109 -2.2461,0.54688 -4.6875,0.54688 -7.28516,0 -11.54297,-4.0625 -4.25781,-4.08203 -4.25781,-11.05469 0,-6.99219 4.25781,-11.05469 4.25781,-4.08203 11.54297,-4.08203 2.4414,0 4.6875,0.54688 2.24609,0.54687 4.3164,1.62109 v 6.03516 q -2.08984,-1.42579 -4.12109,-2.08985 Q 293.71289,135.5 291.4668,135.5 q -4.02344,0 -6.32813,2.57812 -2.30469,2.57813 -2.30469,7.10938 0,4.51172 2.30469,7.08984 2.30469,2.57813 6.32813,2.57813 2.24609,0 4.27734,-0.66406 2.03125,-0.66407 4.12109,-2.08985 z"
         style="font-weight:bold;-inkscape-font-specification:'sans-serif, Bold';fill:#e6e6e6"
         id="path45478" />
      <path
         d="m 306.0957,130.57812 h 7.51953 v 11.11329 h 11.09375 v -11.11329 h 7.51954 v 29.16016 h -7.51954 V 147.375 h -11.09375 v 12.36328 h -7.51953 z"
         style="font-weight:bold;-inkscape-font-specification:'sans-serif, Bold';fill:#e6e6e6"
         id="path45480" />
      <path
         d="m 339.57227,130.57812 h 7.51953 v 29.16016 h -7.51953 z"
         style="font-weight:bold;-inkscape-font-specification:'sans-serif, Bold';fill:#e6e6e6"
         id="path45482" />
      <path
         d="m 350.97852,130.57812 h 26.875 v 5.6836 h -9.66797 v 23.47656 h -7.51953 v -23.47656 h -9.6875 z"
         style="font-weight:bold;-inkscape-font-specification:'sans-serif, Bold';fill:#e6e6e6"
         id="path45484" />
      <path
         d="m 403.83008,132.82422 v 4.16015 q -1.99219,-1.85546 -4.25781,-2.77343 -2.2461,-0.91797 -4.78516,-0.91797 -5,0 -7.65625,3.0664 -2.65625,3.04688 -2.65625,8.82813 0,5.76172 2.65625,8.82812 2.65625,3.04688 7.65625,3.04688 2.53906,0 4.78516,-0.91797 2.26562,-0.91797 4.25781,-2.77344 v 4.1211 q -2.07031,1.40625 -4.39453,2.10937 -2.30469,0.70313 -4.88282,0.70313 -6.62109,0 -10.42968,-4.04297 -3.8086,-4.0625 -3.8086,-11.07422 0,-7.03125 3.8086,-11.07422 3.80859,-4.0625 10.42968,-4.0625 2.61719,0 4.92188,0.70313 2.32422,0.68359 4.35547,2.07031 z"
         id="path45486"
         style="fill:#e6e6e6" />
      <path
         d="m 409.92383,130.57812 h 3.94531 v 11.95313 h 14.33594 v -11.95313 h 3.94531 v 29.16016 h -3.94531 v -13.88672 h -14.33594 v 13.88672 h -3.94531 z"
         id="path45488"
         style="fill:#e6e6e6" />
      <path
         d="m 449.74805,134.46484 -5.35157,14.51172 h 10.72266 z m -2.22657,-3.88672 h 4.47266 l 11.11328,29.16016 h -4.10156 l -2.65625,-7.48047 h -13.14453 l -2.65625,7.48047 h -4.16016 z"
         id="path45490"
         style="fill:#e6e6e6" />
      <path
         d="m 460.2168,130.57812 h 24.66797 v 3.32032 H 474.5332 v 25.83984 h -3.96484 V 133.89844 H 460.2168 Z"
         id="path45492"
         style="fill:#e6e6e6" />
    </g>
  </g>
</svg>
